<svg xmlns="http://www.w3.org/2000/svg" width="611" height="612" viewBox="0 0 611 612">
  <metadata><?xpacket begin="﻿" id="W5M0MpCehiHzreSzNTczkc9d"?>
<x:xmpmeta xmlns:x="adobe:ns:meta/" x:xmptk="Adobe XMP Core 5.6-c142 79.160924, 2017/07/13-01:06:39        ">
   <rdf:RDF xmlns:rdf="http://www.w3.org/1999/02/22-rdf-syntax-ns#">
      <rdf:Description rdf:about=""/>
   </rdf:RDF>
</x:xmpmeta>
                                                                                                    
                                                                                                    
                                                                                                    
                                                                                                    
                                                                                                    
                                                                                                    
                                                                                                    
                                                                                                    
                                                                                                    
                                                                                                    
                                                                                                    
                                                                                                    
                                                                                                    
                                                                                                    
                                                                                                    
                                                                                                    
                                                                                                    
                                                                                                    
                                                                                                    
                                                                                                    
                           
<?xpacket end="w"?></metadata>
<defs>
    <style>
      .cls-1 {
        fill-rule: evenodd;
      }
    </style>
  </defs>
  <path class="cls-1" d="M1,0V612H613V0H1ZM339.726,400.335c-26.324,0-51.077-14.145-59.489-30.34,0,0-14.144,56.076-17.1,66.957-10.545,38.249-41.6,76.5-43.962,79.6a3.257,3.257,0,0,1-5.816-1.38c-0.648-4.918-8.58-53.126.733-92.443l31.3-132.659s-7.762-15.526-7.762-38.5c0-36.114,20.923-63.024,47-63.024,22.158,0,32.788,16.594,32.788,36.555,0,22.221-14.145,55.575-21.49,86.374-6.067,25.841,12.91,46.849,38.4,46.849,46.179,0,77.167-59.173,77.167-129.31,0-53.378-35.883-93.343-101.271-93.343-73.8,0-119.811,55.093-119.811,116.547,0,21.259,6.277,36.22,16.09,47.749,4.5,5.4,5.064,7.512,3.515,13.642-1.233,4.5-3.85,15.211-5.064,19.542-1.548,6.133-6.633,8.329-12.177,6.048C158.857,325.3,143,288.1,143,246.164c0-69.129,58.191-152.01,173.922-152.01C409.863,94.154,471,161.424,471,233.592,471,329.047,417.96,400.335,339.726,400.335Z" transform="translate(-1)"/>
</svg>
