<?xml version="1.0" standalone="no"?>
<!DOCTYPE svg PUBLIC "-//W3C//DTD SVG 20010904//EN"
 "http://www.w3.org/TR/2001/REC-SVG-20010904/DTD/svg10.dtd">
<svg version="1.0" xmlns="http://www.w3.org/2000/svg"
 width="254.000000pt" height="76.000000pt" viewBox="0 0 254.000000 76.000000"
 preserveAspectRatio="xMidYMid meet">

<g transform="translate(0.000000,76.000000) scale(0.100000,-0.100000)"
fill="#000000" stroke="none">
<path d="M0 380 l0 -380 1270 0 1270 0 0 380 0 380 -1270 0 -1270 0 0 -380z
m574 57 c-2 -7 2 -28 10 -47 l14 -34 16 39 c13 31 14 40 4 47 -9 5 -6 8 8 8
l22 0 -25 -62 c-14 -35 -27 -65 -29 -67 -2 -2 -11 13 -19 35 -8 21 -22 51 -30
67 -14 26 -13 27 10 27 16 0 23 -5 19 -13z m238 -4 c22 -20 23 -70 1 -95 -23
-25 -68 -23 -87 4 -46 66 28 144 86 91z m185 1 c3 -9 1 -25 -5 -35 -7 -11 -8
-20 -2 -24 6 -3 10 -15 10 -25 0 -10 6 -21 13 -23 7 -3 4 -6 -6 -6 -11 -1 -22
10 -28 29 -6 17 -17 30 -25 30 -18 0 -19 -46 -1 -53 6 -3 1 -6 -13 -6 -24 -1
-25 1 -25 64 l0 65 38 0 c26 0 40 -5 44 -16z m201 -17 c31 -64 -38 -127 -90
-80 -23 20 -23 71 -1 95 25 28 74 20 91 -15z m146 -9 l27 -43 -3 43 c-2 24 1
42 7 42 6 0 9 -20 7 -47 -6 -92 -5 -91 -35 -40 -15 26 -38 56 -49 67 l-22 20
21 0 c14 0 30 -14 47 -42z m171 -23 c0 -62 -1 -65 -24 -65 -20 0 -22 3 -13 12
7 7 12 30 12 53 0 23 -5 46 -12 53 -9 9 -7 12 13 12 23 0 24 -3 24 -65z m146
18 l31 -48 -4 48 c-2 27 1 47 7 47 6 0 9 -26 7 -65 -2 -36 -8 -63 -13 -60 -5
4 -21 27 -36 53 -30 50 -39 43 -31 -24 2 -20 0 -34 -7 -34 -6 0 -10 26 -10 65
0 80 13 84 56 18z m189 -1 c7 -20 19 -47 26 -59 13 -21 13 -23 -6 -23 -14 0
-20 7 -20 21 0 18 -5 21 -30 17 -32 -5 -35 -1 -20 22 6 10 10 11 10 3 0 -7 7
-13 16 -13 11 0 14 5 10 16 -3 9 -6 18 -6 20 0 3 -5 2 -12 -2 -8 -5 -9 -2 -5
10 4 10 7 22 7 27 0 21 19 -3 30 -39z m-530 -78 c0 -2 -9 -4 -21 -4 -11 0 -18
4 -14 10 5 8 35 3 35 -6z m475 6 c3 -5 -1 -10 -10 -10 -9 0 -13 5 -10 10 3 6
8 10 10 10 2 0 7 -4 10 -10z m185 0 c0 -5 -4 -10 -10 -10 -5 0 -10 5 -10 10 0
6 5 10 10 10 6 0 10 -4 10 -10z"/>
<path d="M744 426 c-3 -8 -4 -31 -2 -52 3 -34 6 -39 28 -39 32 0 49 42 32 80
-13 27 -49 34 -58 11z"/>
<path d="M940 414 c0 -33 33 -30 38 4 3 17 -2 22 -17 22 -16 0 -21 -6 -21 -26z"/>
<path d="M1116 425 c-9 -23 -7 -68 3 -83 4 -8 19 -12 32 -10 22 3 24 8 24 53
0 47 -2 50 -26 53 -17 2 -29 -3 -33 -13z"/>
</g>
</svg>
