<?xml version="1.0" encoding="utf-8"?>
<!-- Generator: Adobe Illustrator 16.0.2, SVG Export Plug-In . SVG Version: 6.00 Build 0)  -->
<!DOCTYPE svg PUBLIC "-//W3C//DTD SVG 1.1//EN" "http://www.w3.org/Graphics/SVG/1.1/DTD/svg11.dtd">
<svg version="1.1" id="Слой_1" xmlns="http://www.w3.org/2000/svg" xmlns:xlink="http://www.w3.org/1999/xlink" x="0px" y="0px"
	 width="150px" height="23px" viewBox="0 0 150 23" enable-background="new 0 0 150 23" xml:space="preserve">
<metadata><?xpacket begin="﻿" id="W5M0MpCehiHzreSzNTczkc9d"?>
<x:xmpmeta xmlns:x="adobe:ns:meta/" x:xmptk="Adobe XMP Core 5.3-c011 66.145661, 2012/02/06-14:56:27        ">
   <rdf:RDF xmlns:rdf="http://www.w3.org/1999/02/22-rdf-syntax-ns#">
      <rdf:Description rdf:about=""
            xmlns:xmpMM="http://ns.adobe.com/xap/1.0/mm/"
            xmlns:stEvt="http://ns.adobe.com/xap/1.0/sType/ResourceEvent#"
            xmlns:stMfs="http://ns.adobe.com/xap/1.0/sType/ManifestItem#"
            xmlns:stRef="http://ns.adobe.com/xap/1.0/sType/ResourceRef#">
         <xmpMM:DerivedFrom rdf:parseType="Resource"/>
         <xmpMM:DocumentID>xmp.did:CC77D095C066E9118100C2935BCD57D0</xmpMM:DocumentID>
         <xmpMM:InstanceID>xmp.iid:CC77D095C066E9118100C2935BCD57D0</xmpMM:InstanceID>
         <xmpMM:OriginalDocumentID>xmp.did:CC77D095C066E9118100C2935BCD57D0</xmpMM:OriginalDocumentID>
         <xmpMM:History>
            <rdf:Seq>
               <rdf:li rdf:parseType="Resource">
                  <stEvt:action>saved</stEvt:action>
                  <stEvt:instanceID>xmp.iid:CC77D095C066E9118100C2935BCD57D0</stEvt:instanceID>
                  <stEvt:when>2019-04-24T22:41:34+04:00</stEvt:when>
                  <stEvt:softwareAgent>Adobe Illustrator CS6 (Windows)</stEvt:softwareAgent>
                  <stEvt:changed>/</stEvt:changed>
               </rdf:li>
            </rdf:Seq>
         </xmpMM:History>
         <xmpMM:Manifest>
            <rdf:Seq>
               <rdf:li rdf:parseType="Resource">
                  <stMfs:linkForm>EmbedByReference</stMfs:linkForm>
                  <stMfs:reference rdf:parseType="Resource">
                     <stRef:filePath>C:\Users\Junova\Desktop\Photographer\app\img\portfolio.eps</stRef:filePath>
                  </stMfs:reference>
               </rdf:li>
            </rdf:Seq>
         </xmpMM:Manifest>
      </rdf:Description>
      <rdf:Description rdf:about=""
            xmlns:dc="http://purl.org/dc/elements/1.1/">
         <dc:format>image/svg+xml</dc:format>
      </rdf:Description>
      <rdf:Description rdf:about=""
            xmlns:xmp="http://ns.adobe.com/xap/1.0/"
            xmlns:xmpGImg="http://ns.adobe.com/xap/1.0/g/img/">
         <xmp:CreatorTool>Adobe Illustrator CS6 (Windows)</xmp:CreatorTool>
         <xmp:CreateDate>2019-04-24T22:41:31+04:00</xmp:CreateDate>
         <xmp:Thumbnails>
            <rdf:Alt>
               <rdf:li rdf:parseType="Resource">
                  <xmpGImg:width>256</xmpGImg:width>
                  <xmpGImg:height>48</xmpGImg:height>
                  <xmpGImg:format>JPEG</xmpGImg:format>
                  <xmpGImg:image>/9j/4AAQSkZJRgABAgEASABIAAD/7QAsUGhvdG9zaG9wIDMuMAA4QklNA+0AAAAAABAASAAAAAEA&#xA;AQBIAAAAAQAB/+4ADkFkb2JlAGTAAAAAAf/bAIQABgQEBAUEBgUFBgkGBQYJCwgGBggLDAoKCwoK&#xA;DBAMDAwMDAwQDA4PEA8ODBMTFBQTExwbGxscHx8fHx8fHx8fHwEHBwcNDA0YEBAYGhURFRofHx8f&#xA;Hx8fHx8fHx8fHx8fHx8fHx8fHx8fHx8fHx8fHx8fHx8fHx8fHx8fHx8fHx8f/8AAEQgAMAEAAwER&#xA;AAIRAQMRAf/EAaIAAAAHAQEBAQEAAAAAAAAAAAQFAwIGAQAHCAkKCwEAAgIDAQEBAQEAAAAAAAAA&#xA;AQACAwQFBgcICQoLEAACAQMDAgQCBgcDBAIGAnMBAgMRBAAFIRIxQVEGE2EicYEUMpGhBxWxQiPB&#xA;UtHhMxZi8CRygvElQzRTkqKyY3PCNUQnk6OzNhdUZHTD0uIIJoMJChgZhJRFRqS0VtNVKBry4/PE&#xA;1OT0ZXWFlaW1xdXl9WZ2hpamtsbW5vY3R1dnd4eXp7fH1+f3OEhYaHiImKi4yNjo+Ck5SVlpeYmZ&#xA;qbnJ2en5KjpKWmp6ipqqusra6voRAAICAQIDBQUEBQYECAMDbQEAAhEDBCESMUEFURNhIgZxgZEy&#xA;obHwFMHR4SNCFVJicvEzJDRDghaSUyWiY7LCB3PSNeJEgxdUkwgJChgZJjZFGidkdFU38qOzwygp&#xA;0+PzhJSktMTU5PRldYWVpbXF1eX1RlZmdoaWprbG1ub2R1dnd4eXp7fH1+f3OEhYaHiImKi4yNjo&#xA;+DlJWWl5iZmpucnZ6fkqOkpaanqKmqq6ytrq+v/aAAwDAQACEQMRAD8A9U4q7FXYq7FXYq7FXYq7&#xA;FXYq7FXYq7FXiXnvy9aeZv8AnIHTNC1Ke5XTW8u/WGitp5IKyJdTgNVCMVRf5Ew/o3VfzC06KSe4&#xA;tNL1ZoLRJpGlcRxCQKvJyTWgxViXlbyyPPf5c65+Ymt6xep5mLXtxYXMF1JFHYC1UtHHHGrBQvw7&#xA;/wCT0od8Vb89+a9V1z/nH3ybrOqSzfWrzVLeK/eEsksyRG5iY/BxJMixhtu+Kph+U2n68n5p3Nx5&#xA;fstb07yD9XcNFrPrLG54KI/RWcs3L1+ZrUnj1pWmKofVPyy8vL+eOn+VhcagNIvNHk1GeL67PyM/&#xA;rSrUPyqBRBtirvzd1LV9V1jzZ5WGpXFhoflby+t3DZQPwa9ldU+Kd/tSRKJOJXpUYqlf5NarrXlx&#xA;vy4htNSuLrTPNy6lFf6NM/qRQNaTycJrdTvFXqwGxo3jsqynTNCh/M78xvOsPma8u/0d5bnjsNJ0&#xA;u3uJLdIq8wbghCKuxi5Anx8AMVZB+QGuaxe+X9a0rU7yTUf8PatcabaajKeTywRU48nP2iK9fAjF&#xA;XiVhpar5G8vebkvLw6pe+bY7BpDcymJrWsj0EfLj9qMb4q9T/MXzmvlP8421e4kZ7az8pvLHZ8iF&#xA;luGvXjhQKP2ndlWtOmKsa/INvM0X5zeY7PzBdyz6j+jDcXsTsxVLieW2mkUKSVHAyFdsVRHlDyyn&#xA;5leV/MnnbzDql7FrSXV2mltDcyQx6alsgeNUjUhdi3xV7e9Tir078j/MureZPyx0bVNWcy37LLDL&#xA;cN1l9CZ4lkPiSqDke5riql5p/Pv8p/Kuu3Wg69rv1PVrPh9Ztvqt5Lx9WNZU+OKF0NUdTs2KpT/0&#xA;NH+RP/Uzf9OOof8AZPirv+ho/wAif+pm/wCnHUP+yfFWQeSvzm/LXzvqsuleWNY/SF/BA11LD9Wu&#xA;oaQo6Rs3KeKJftSqKVrvirNcVdirsVdirsVdirsVdirsVdirsVdirsVYjc+Q3m/NK088/XQqW2ln&#xA;S/qHp1LEyvL6nq8tv7ynHj9OKu8keQ38s6z5o1Fr0XQ8x6g1+sQj9P0QxY8CeTc/tdaDFWC67/zj&#xA;1qNzq+oLonmeTRvKurzfWNR8vwxymF2NPUG06iklN6AUG1KAYqzDzt+V9nr/AJX0Xy7ps6aTZaJe&#xA;2t3bqIzKvp2quoiA5qd+f2iT9OKs4xViN35De4/NCy88fXQqWemNppsPTqWLSPJ6nqctv7ylOP04&#xA;qlv5qflHpnnezeeApY+YVga2g1KsqkxNWsUojdOSEn9oN8sVQf5S/ktp/km2gu9RePUvMEEbwxXo&#xA;MpSCF3ZikKyMVTlz3KovU+Jqqo+fPya1XWPM0nmLyp5ik8r397CINWa3SQm5A2V2KSxiqqAPs+9a&#xA;4qmDflO1j+XMXk/y7qjaRKOTXWpQrIrzySxOkjuBJy+JmBpzPQDwxVQ1P8mLSfyP5Y8q6ferZxeX&#xA;tQt9Ref0S/rvCJPU+EyVUyvMWryNOmKq3mv8orfzH+Zuh+c7u8Q2ujwJE2lvCW9V4pJZY39TmtOL&#xA;yqacT9nFVXy5+V0mjfmjr3ng6kJ01qAwCwEJUxVaI19Xm3L+5/lHXFWMeZvyB1O91zU5/L3meTQN&#xA;B1x/U1fRoI5THIzf3p2nQH1KmoAUU26Yq9X0LRdO0PR7TSNNhW3sbKNYoIkrQKvzJJJO5JNScVR2&#xA;KuxV2KuxV2KvPv8Alf35Qf8AUyQ/8irj/qnirK282eW08ux+Y5dQhh0OWJZ0v5W9OMxv9g/HxPxV&#xA;2FK4qlnlf80vy/8ANN49joOtQXl4gLfVqPFIQvUosqoXA78a4qpeYvzZ/Lvy5qr6TrWtRWeoRKrS&#xA;W7JKxUOOS1KIy7g164qi9X/MbyRpGiWeuahq8MekagwSyvU5SxyMQWopiV+ynFUJ5d/Nv8uvMeqx&#xA;aToutR3moTBmjt1jmUkIpZt3RV2UeOKqmvfmp+XmgatBpGr69a2uoTv6YgLF/Tbb+/ZAywD4hvKV&#xA;H3HFWSRXtnNaLeRTxyWjp6q3KOrRlKV5hwePGnfFWJWf5zflfe6wuj23mK1kv3cRxr8YjZySAqzF&#xA;RExJG1G/Xiqc+avOfljypZw3nmG/Wwtp5PRikdXYNJxLcaRq56KcVQvlT8x/JPmy4nt/L2qJqE1s&#xA;gknRElTirGgP7xU74q6z/MbyTeeWbnzRb6rE+g2bGO5vysiojAqONGUMTV1AoN64qmEHmny9P5eX&#xA;zGl/EuhvF64v5D6UXp1pyJk4038cVSfy1+a/5eeZtROm6JrcF3fgErb0kidwoqfTEqpzoN/hrirL&#xA;MVdirsVdirsVY/518++U/JGlRar5nvv0fYTzraxTelNNWZ0eRV4wJK32YmNaU2xVhX/Q0f5E/wDU&#xA;zf8ATjqH/ZPirv8AoaP8if8AqZv+nHUP+yfFXf8AQ0f5E/8AUzf9OOof9k+Ku/6Gj/In/qZv+nHU&#xA;P+yfFXf9DR/kT/1M3/TjqH/ZPirv+ho/yJ/6mb/px1D/ALJ8Vd/0NH+RP/Uzf9OOof8AZPirv+ho&#xA;/wAif+pm/wCnHUP+yfFXf9DR/kT/ANTN/wBOOof9k+Ku/wCho/yJ/wCpm/6cdQ/7J8Vd/wBDR/kT&#xA;/wBTN/046h/2T4q7/oaP8if+pm/6cdQ/7J8VeQ+U9G0eX/nGDzLqUtjbyajFdssV60SGdR6lsKLI&#xA;RzH2j0OKpr+Ybf8AIJfymS/LDy48lp+mDvw4iNOPKn/Ffq0xVO/zSg8swfmj+Wn+DktI9Ya8Qzfo&#xA;8IENl6kXAyej+xw9X/Y8sVS/zdbeY7v/AJyB802vl/RbPXL240SOJ7bUGRYY4nS2VpqOQGZSQKV7&#xA;4q9K8g/llF5c/K2Hy/5hhttTurdbi6kWRFniill5NSL1F/ZBpWnWuKsQ/wCcfdJh/wCVM3Wq6dYw&#xA;t5jT9ILY3qxIbj1OBEarJTl12pXFXk3lYeQZf+VdtqRtWupL/Vv8YteFeRHKMwmcvvw9I/CT+1yp&#xA;vXFWXeVpNbX/AJxt88nTPX/RovpBpFeVfqJlh+s8OXxcPTL8vfl3riqr53t/y2H/ADjZo0tgtn+m&#xA;DFZfVJIhGLo33Jfrgcr8fT1eQO3T2xVOvzhuHv8Ay5+WHlzUJEm8yXd3pz31mx5PyMKxSmRDV6NJ&#xA;JTcb74qnH5X2VnZfn3+YNrZwR21tFBaiOCFFjjUFYz8KqABucVeG+WZdW8x/l5P5QsC0emaPFqXm&#xA;XXLhQacoLci1hJ6bvHuP8qv7OKs/89tOP+cbvIiuZBpT3VsNUMfX0qSkcqdqjb3p7Yqm/wCdEXk6&#xA;LVPy9byWtomunUIP0d+jRH8VqWTgW9LqvPjw5f5Xvir3bzJqd/peh3moafp0mrXttGXg02FgkkzV&#xA;HwKxBAP0Yq8y/wCVy/mh/wCWl1X/AKS4v+qeKu/5XL+aH/lpdV/6S4v+qeKu/wCVy/mh/wCWl1X/&#xA;AKS4v+qeKvR/KOs6prXl601PVNJl0K/uPU9bSrhxJJDwlZF5MoUHmqhxt0OKpxirsVdirsVdirsV&#xA;dirsVdirsVdirsVdirG7T8uPJNp5ZufK9vpaR6DeOZLmxDylXYlTUsW59Y16HtiqLn8neWLjy2nl&#xA;m406KbQookhjsZAXRUj+xQsSwK02atRiqV+U/wApvy88pXrX2gaNHaXrKU+stJNPIqnYhGneQpXv&#xA;xpXFU3g8qeXoPMtx5mhs1TXbuAWtxfBn5PCOBCFS3D/dS9B2xVNJI0kjaNxyRwVYeIIocVS3y35X&#xA;0Hy1pi6XodotlYK7SLAjOwDPuxq5Y7/PFUj138ovy513WINY1LQ7aW+hdpHdUCLMzUqbhVos32f2&#xA;64qyiLTdOhsBp8VrDHp4jMIs1jVYRGRQp6YHHjTalMVYdYfkd+VNhq66va+XYEvo39WMs8zxK9ag&#xA;rA7tCtD0om3bFU+n8leVbjzNF5on06KXXoI1hhvn5MyIvKnFSeCn4z8QWvviqrYeU/L1hrt/r1nZ&#xA;rFq+phVv7sM5aUIAFqCxUU4joMVS7Rfyz8i6JpmpaXpWkRWtjrEZh1KJWkPrRsjIVZmYtTi7DY98&#xA;VTBfKPloeW18snT4n0FY/RXT5AZI+APID4yx2O4Nag4qkvlj8n/y28sal+k9E0OK2vwCEuHkmnZK&#xA;7Ex+u8nAkbVWm22KsxxV2KuxV2KuxV2KuxV2KuxV2KuxV2KuxV2KuxV2KuxV2KvLZfzC/PJZXWP8&#xA;pvUjViEk/wAQ6evIA7GhTauKrP8AlYn57f8Alo//AA4tP/5oxV3/ACsT89v/AC0f/hxaf/zRirv+&#xA;Vifnt/5aP/w4tP8A+aMVd/ysT89v/LR/+HFp/wDzRirv+Vifnt/5aP8A8OLT/wDmjFXf8rE/Pb/y&#xA;0f8A4cWn/wDNGKu/5WJ+e3/lo/8Aw4tP/wCaMVd/ysT89v8Ay0f/AIcWn/8ANGKu/wCVifnt/wCW&#xA;j/8ADi0//mjFXf8AKxPz2/8ALR/+HFp//NGKu/5WJ+e3/lo//Di0/wD5oxV3/KxPz2/8tH/4cWn/&#xA;APNGKu/5WJ+e3/lo/wDw4tP/AOaMVd/ysT89v/LR/wDhxaf/AM0Yq7/lYn57f+Wj/wDDi0//AJox&#xA;V3/KxPz2/wDLR/8Ahxaf/wA0Yq7/AJWJ+e3/AJaP/wAOLT/+aMVd/wArE/Pb/wAtH/4cWn/80Yqy&#xA;DyV5q/MrV9VltvM/kX/DFgkDSRX/AOlbW/5zB0VYfSgVWXkrM3Lp8NO+Ks1xV2KuxV2KuxV2KuxV&#xA;2KuxV2KuxV2Kv//Z</xmpGImg:image>
               </rdf:li>
            </rdf:Alt>
         </xmp:Thumbnails>
         <xmp:MetadataDate>2019-04-24T22:41:34+04:00</xmp:MetadataDate>
         <xmp:ModifyDate>2019-04-24T22:41:34+04:00</xmp:ModifyDate>
      </rdf:Description>
      <rdf:Description rdf:about=""
            xmlns:xmpTPg="http://ns.adobe.com/xap/1.0/t/pg/"
            xmlns:stDim="http://ns.adobe.com/xap/1.0/sType/Dimensions#"
            xmlns:xmpG="http://ns.adobe.com/xap/1.0/g/">
         <xmpTPg:MaxPageSize rdf:parseType="Resource">
            <stDim:w>150.000000</stDim:w>
            <stDim:h>23.000000</stDim:h>
            <stDim:unit>Points</stDim:unit>
         </xmpTPg:MaxPageSize>
         <xmpTPg:NPages>1</xmpTPg:NPages>
         <xmpTPg:HasVisibleTransparency>False</xmpTPg:HasVisibleTransparency>
         <xmpTPg:HasVisibleOverprint>False</xmpTPg:HasVisibleOverprint>
         <xmpTPg:PlateNames>
            <rdf:Seq>
               <rdf:li>Cyan</rdf:li>
               <rdf:li>Magenta</rdf:li>
               <rdf:li>Yellow</rdf:li>
               <rdf:li>Black</rdf:li>
            </rdf:Seq>
         </xmpTPg:PlateNames>
         <xmpTPg:SwatchGroups>
            <rdf:Seq>
               <rdf:li rdf:parseType="Resource">
                  <xmpG:groupName>Группа образцов по умолчанию</xmpG:groupName>
                  <xmpG:groupType>0</xmpG:groupType>
               </rdf:li>
            </rdf:Seq>
         </xmpTPg:SwatchGroups>
      </rdf:Description>
   </rdf:RDF>
</x:xmpmeta>
                                                                                                    
                                                                                                    
                                                                                                    
                                                                                                    
                                                                                                    
                                                                                                    
                                                                                                    
                                                                                                    
                                                                                                    
                                                                                                    
                                                                                                    
                                                                                                    
                                                                                                    
                                                                                                    
                                                                                                    
                                                                                                    
                                                                                                    
                                                                                                    
                                                                                                    
                                                                                                    
                           
<?xpacket end="w"?>
	</metadata>
<g>
	<image overflow="visible" width="150" height="23" xlink:href="AAB0FFD1.jpg"  transform="matrix(1 0 0 1 94 -21)">
	</image>
</g>
<g>
	<image overflow="visible" width="150" height="23" xlink:href="AAB0FFD3.jpg" >
	</image>
	<g>
		<defs>
			<polyline id="SVGID_1_" points="0.292,22.977 0.292,20.977 150,20.977 150,22.977 0.292,22.977 			"/>
		</defs>
		<clipPath id="SVGID_2_">
			<use xlink:href="#SVGID_1_"  overflow="visible"/>
		</clipPath>
		<image overflow="visible" clip-path="url(#SVGID_2_)" width="150" height="23" xlink:href="AAB0FFD6.jpg" >
		</image>
	</g>
	<g>
		<defs>
			<path id="SVGID_3_" d="M6.166,11.155V2.373H2.396v8.782H-0.02V0.374H8.58v10.781H6.166L6.166,11.155z M16.755,11.331
				c-3.155,0-5.001-2.415-5.001-5.486c0-3.231,2.036-5.646,5.174-5.646c3.268,0,5.05,2.479,5.05,5.454
				C21.978,9.188,19.863,11.331,16.755,11.331L16.755,11.331z M16.866,2.134c-1.626,0-2.571,1.567-2.571,3.663
				c0,2.11,0.978,3.599,2.586,3.599c1.626,0,2.557-1.567,2.557-3.663C19.438,3.796,18.521,2.134,16.866,2.134L16.866,2.134z
				 M31.794,6.213c-0.821,0.783-2.036,1.136-3.457,1.136c-0.314,0-0.6-0.017-0.819-0.049v3.855h-2.383V0.518
				c0.742-0.127,1.783-0.224,3.25-0.224c1.483,0,2.541,0.287,3.251,0.864c0.678,0.544,1.136,1.438,1.136,2.494
				C32.772,4.709,32.425,5.604,31.794,6.213L31.794,6.213z M28.512,2.134c-0.489,0-0.821,0.048-0.994,0.095v3.185
				c0.205,0.047,0.458,0.063,0.805,0.063c1.278,0,2.066-0.655,2.066-1.761C30.39,2.726,29.712,2.134,28.512,2.134L28.512,2.134z
				 M40.49,2.421v8.734h-2.414V2.421H35.22V0.374h8.172v2.047H40.49L40.49,2.421z M51.915,10.627v0.977h-2.255v-0.977
				c-2.304-0.176-4.528-1.504-4.528-4.815c0-3.407,2.508-4.766,4.559-4.942v-0.943h2.255v0.943c2.257,0.16,4.529,1.504,4.529,4.863
				C56.474,9.06,54.266,10.404,51.915,10.627L51.915,10.627z M49.674,2.533c-0.931,0.129-2.13,0.96-2.13,3.231
				c0,2.112,1.183,3.039,2.13,3.166V2.533L49.674,2.533z M51.931,2.533v6.397c0.931-0.11,2.13-0.911,2.13-3.198
				C54.061,3.46,52.925,2.662,51.931,2.533L51.931,2.533z M64.161,11.331c-3.155,0-5.001-2.415-5.001-5.486
				c0-3.231,2.035-5.646,5.175-5.646c3.266,0,5.048,2.479,5.048,5.454C69.383,9.188,67.27,11.331,64.161,11.331L64.161,11.331z
				 M64.271,2.134c-1.625,0-2.571,1.567-2.571,3.663c0,2.11,0.978,3.599,2.587,3.599c1.625,0,2.555-1.567,2.555-3.663
				C66.843,3.796,65.929,2.134,64.271,2.134L64.271,2.134z M78,11.155V2.373h-2.414v2.559c0,2.769-0.347,4.896-1.957,5.855
				c-0.536,0.305-1.261,0.527-2.113,0.527l-0.3-1.967c0.52-0.064,0.947-0.288,1.214-0.576c0.647-0.672,0.805-2.047,0.805-3.679
				V0.374h7.164v10.781H78L78,11.155z M90.657,11.155V7.973c0-1.664,0.031-3.135,0.173-4.543h-0.047
				c-0.489,1.279-1.167,2.703-1.799,3.839l-2.161,3.887h-2.746V0.374h2.209v3.199c0,1.727-0.031,3.439-0.127,4.879h0.063
				c0.553-1.264,1.263-2.688,1.894-3.84l2.288-4.238h2.46v10.781H90.657L90.657,11.155z M101.057,11.331
				c-3.155,0-5.001-2.415-5.001-5.486c0-3.231,2.035-5.646,5.174-5.646c3.267,0,5.05,2.479,5.05,5.454
				C106.28,9.188,104.165,11.331,101.057,11.331L101.057,11.331z M101.168,2.134c-1.626,0-2.571,1.567-2.571,3.663
				c0,2.11,0.978,3.599,2.586,3.599c1.626,0,2.557-1.567,2.557-3.663C103.739,3.796,102.824,2.134,101.168,2.134L101.168,2.134z"/>
		</defs>
		<defs>
			<rect id="SVGID_4_" y="-769" width="612" height="792"/>
		</defs>
		<clipPath id="SVGID_5_">
			<use xlink:href="#SVGID_3_"  overflow="visible"/>
		</clipPath>
		<clipPath id="SVGID_6_" clip-path="url(#SVGID_5_)">
			<use xlink:href="#SVGID_4_"  overflow="visible"/>
		</clipPath>
		<image overflow="visible" clip-path="url(#SVGID_6_)" width="150" height="23" xlink:href="AAB0FFD7.jpg" >
		</image>
	</g>
	<g>
		<defs>
			<polyline id="SVGID_7_" points="113,8 113,6 139,6 139,8 113,8 			"/>
		</defs>
		<clipPath id="SVGID_8_">
			<use xlink:href="#SVGID_7_"  overflow="visible"/>
		</clipPath>
		<image overflow="visible" clip-path="url(#SVGID_8_)" width="150" height="23" xlink:href="AAB0FFD2.jpg" >
		</image>
	</g>
</g>
</svg>
